# xmcd CD database file
#
# Track frame offsets:
#	150
#	27825
#	50100
#	75150
#	100725
#	127875
#	154800
#	178500
#	201375
#	228450
#
# Disc length: 3384 seconds
#
# Revision: 0
# Processed by: cddbd v1.4PL0 Copyright (c) Steve Scherf et al.
# Submitted via: CDex 1.50beta9
#
DISCID=770d360a
DTITLE=Hennie Bekker - Essence of Romance
DYEAR=1998
DGENRE=New Age
TTITLE0=Let it be Forever
TTITLE1=Always There
TTITLE2=Shadows that Follow Me
TTITLE3=A Song to You
TTITLE4=Who Knows?
TTITLE5=Mi Passion
TTITLE6=It was A Long Time Ago
TTITLE7=Deep Velvet Nights
TTITLE8=Somewhere in A Smile
TTITLE9=Never Say Goodbye Again
EXTD=YEAR: 1998
EXTT0=
EXTT1=
EXTT2=
EXTT3=
EXTT4=
EXTT5=
EXTT6=
EXTT7=
EXTT8=
EXTT9=
PLAYORDER=
